# xmcd CD database file
#
# Track frame offsets:
#	150
#	68241
#	119062
#	159893
#	188928
#	212056
#	244287
#	281888
#	310771
#
# Disc length: 4514 seconds
#
# Revision: 1
# Processed by: cddbd v1.5.1PL0 Copyright (c) Steve Scherf et al.
# Submitted via: CDex 1.51
#
DISCID=8811a009
DTITLE=Jimmy Smith - B3 Power
DYEAR=2005
DGENRE=Jazz
TTITLE0=Joey DeFrancesco and Jimmy Smith - The Reverend - Yesterdays - My Romance
TTITLE1=Joey DeFrancesco and Jimmy Smith - The Skeezer - St.Thomas
TTITLE2=Jimmy Smith and Band - Watermelon Man
TTITLE3=Jimmy Smith and Band - The Very Thought Of You
TTITLE4=Jimmy Smith and Band - St.Thomas
TTITLE5=Jimmy Smith and Band - Got My Mojo Working
TTITLE6=Joey DeFrancesco and Jimmy Smith - Legacy
TTITLE7=Joey DeFrancesco and Jimmy Smith - Off The Top
TTITLE8=Joey DeFrancesco and Jimmy Smith - I Got My Mojo Workin'
EXTD=YEAR: 2005
EXTT0=
EXTT1=
EXTT2=
EXTT3=
EXTT4=
EXTT5=
EXTT6=
EXTT7=
EXTT8=
PLAYORDER=
